<?xml version="1.0" encoding="UTF-8"?>
<svg viewBox="0 0 512 512" xmlns="http://www.w3.org/2000/svg">
 <path d="m0 0h64v8h-64z"/>
 <path d="m0 8h64v8h-64z" fill="#fff"/>
 <path transform="matrix(0,-1,-1,0,0,0)" d="m-64-72h64v8h-64z"/>
 <path transform="matrix(0,-1,-1,0,0,0)" d="m-64-80h64v8h-64z" fill="#fff"/>
 <path d="m0 16h64v8h-64z"/>
 <path d="m0 24h64v8h-64z" fill="#fff"/>
 <path d="m0 32h64v8h-64z"/>
 <path d="m0 40h64v8h-64z" fill="#fff"/>
 <path d="m0 48h64v8h-64z"/>
 <path d="m0 56h64v8h-64z" fill="#fff"/>
 <path transform="matrix(0,-1,-1,0,0,0)" d="m-64-88h64v8h-64z"/>
 <path transform="matrix(0,-1,-1,0,0,0)" d="m-64-96h64v8h-64z" fill="#fff"/>
 <path transform="matrix(0,-1,-1,0,0,0)" d="m-64-104h64v8h-64z"/>
 <path transform="matrix(0,-1,-1,0,0,0)" d="m-64-112h64v8h-64z" fill="#fff"/>
 <path transform="matrix(0,-1,-1,0,0,0)" d="m-64-120h64v8h-64z"/>
 <path transform="matrix(0,-1,-1,0,0,0)" d="m-64-128h64v8h-64z" fill="#fff"/>
 <path transform="matrix(0,-1,-1,0,0,0)" d="m-128-8h64v8h-64z"/>
 <path transform="matrix(0,-1,-1,0,0,0)" d="m-128-16h64v8h-64z" fill="#fff"/>
 <path transform="matrix(0,-1,-1,0,0,0)" d="m-128-24h64v8h-64z"/>
 <path transform="matrix(0,-1,-1,0,0,0)" d="m-128-32h64v8h-64z" fill="#fff"/>
 <path transform="matrix(0,-1,-1,0,0,0)" d="m-128-40h64v8h-64z"/>
 <path transform="matrix(0,-1,-1,0,0,0)" d="m-128-48h64v8h-64z" fill="#fff"/>
 <path transform="matrix(0,-1,-1,0,0,0)" d="m-128-56h64v8h-64z"/>
 <path transform="matrix(0,-1,-1,0,0,0)" d="m-128-64h64v8h-64z" fill="#fff"/>
 <path d="m64 64h64v8h-64z"/>
 <path d="m64 72h64v8h-64z" fill="#fff"/>
 <path d="m64 80h64v8h-64z"/>
 <path d="m64 88h64v8h-64z" fill="#fff"/>
 <path d="m64 96h64v8h-64z"/>
 <path d="m64 104h64v8h-64z" fill="#fff"/>
 <path d="m64 112h64v8h-64z"/>
 <path d="m64 120h64v8h-64z" fill="#fff"/>
 <path d="m128 0h64v8h-64z"/>
 <path d="m128 8h64v8h-64z" fill="#fff"/>
 <path transform="matrix(0,-1,-1,0,0,0)" d="m-64-200h64v8h-64z"/>
 <path transform="matrix(0,-1,-1,0,0,0)" d="m-64-208h64v8h-64z" fill="#fff"/>
 <path d="m128 16h64v8h-64z"/>
 <path d="m128 24h64v8h-64z" fill="#fff"/>
 <path d="m128 32h64v8h-64z"/>
 <path d="m128 40h64v8h-64z" fill="#fff"/>
 <path d="m128 48h64v8h-64z"/>
 <path d="m128 56h64v8h-64z" fill="#fff"/>
 <path transform="matrix(0,-1,-1,0,0,0)" d="m-64-216h64v8h-64z"/>
 <path transform="matrix(0,-1,-1,0,0,0)" d="m-64-224h64v8h-64z" fill="#fff"/>
 <path transform="matrix(0,-1,-1,0,0,0)" d="m-64-232h64v8h-64z"/>
 <path transform="matrix(0,-1,-1,0,0,0)" d="m-64-240h64v8h-64z" fill="#fff"/>
 <path transform="matrix(0,-1,-1,0,0,0)" d="m-64-248h64v8h-64z"/>
 <path transform="matrix(0,-1,-1,0,0,0)" d="m-64-256h64v8h-64z" fill="#fff"/>
 <path transform="matrix(0,-1,-1,0,0,0)" d="m-128-136h64v8h-64z"/>
 <path transform="matrix(0,-1,-1,0,0,0)" d="m-128-144h64v8h-64z" fill="#fff"/>
 <path transform="matrix(0,-1,-1,0,0,0)" d="m-128-152h64v8h-64z"/>
 <path transform="matrix(0,-1,-1,0,0,0)" d="m-128-160h64v8h-64z" fill="#fff"/>
 <path transform="matrix(0,-1,-1,0,0,0)" d="m-128-168h64v8h-64z"/>
 <path transform="matrix(0,-1,-1,0,0,0)" d="m-128-176h64v8h-64z" fill="#fff"/>
 <path transform="matrix(0,-1,-1,0,0,0)" d="m-128-184h64v8h-64z"/>
 <path transform="matrix(0,-1,-1,0,0,0)" d="m-128-192h64v8h-64z" fill="#fff"/>
 <path d="m192 64h64v8h-64z"/>
 <path d="m192 72h64v8h-64z" fill="#fff"/>
 <path d="m192 80h64v8h-64z"/>
 <path d="m192 88h64v8h-64z" fill="#fff"/>
 <path d="m192 96h64v8h-64z"/>
 <path d="m192 104h64v8h-64z" fill="#fff"/>
 <path d="m192 112h64v8h-64z"/>
 <path d="m192 120h64v8h-64z" fill="#fff"/>
 <path d="m0 128h64v8h-64z"/>
 <path d="m0 136h64v8h-64z" fill="#fff"/>
 <path transform="matrix(0,-1,-1,0,0,0)" d="m-192-72h64v8h-64z"/>
 <path transform="matrix(0,-1,-1,0,0,0)" d="m-192-80h64v8h-64z" fill="#fff"/>
 <path d="m0 144h64v8h-64z"/>
 <path d="m0 152h64v8h-64z" fill="#fff"/>
 <path d="m0 160h64v8h-64z"/>
 <path d="m0 168h64v8h-64z" fill="#fff"/>
 <path d="m0 176h64v8h-64z"/>
 <path d="m0 184h64v8h-64z" fill="#fff"/>
 <path transform="matrix(0,-1,-1,0,0,0)" d="m-192-88h64v8h-64z"/>
 <path transform="matrix(0,-1,-1,0,0,0)" d="m-192-96h64v8h-64z" fill="#fff"/>
 <path transform="matrix(0,-1,-1,0,0,0)" d="m-192-104h64v8h-64z"/>
 <path transform="matrix(0,-1,-1,0,0,0)" d="m-192-112h64v8h-64z" fill="#fff"/>
 <path transform="matrix(0,-1,-1,0,0,0)" d="m-192-120h64v8h-64z"/>
 <path transform="matrix(0,-1,-1,0,0,0)" d="m-192-128h64v8h-64z" fill="#fff"/>
 <path transform="matrix(0,-1,-1,0,0,0)" d="m-256-8h64v8h-64z"/>
 <path transform="matrix(0,-1,-1,0,0,0)" d="m-256-16h64v8h-64z" fill="#fff"/>
 <path transform="matrix(0,-1,-1,0,0,0)" d="m-256-24h64v8h-64z"/>
 <path transform="matrix(0,-1,-1,0,0,0)" d="m-256-32h64v8h-64z" fill="#fff"/>
 <path transform="matrix(0,-1,-1,0,0,0)" d="m-256-40h64v8h-64z"/>
 <path transform="matrix(0,-1,-1,0,0,0)" d="m-256-48h64v8h-64z" fill="#fff"/>
 <path transform="matrix(0,-1,-1,0,0,0)" d="m-256-56h64v8h-64z"/>
 <path transform="matrix(0,-1,-1,0,0,0)" d="m-256-64h64v8h-64z" fill="#fff"/>
 <path d="m64 192h64v8h-64z"/>
 <path d="m64 200h64v8h-64z" fill="#fff"/>
 <path d="m64 208h64v8h-64z"/>
 <path d="m64 216h64v8h-64z" fill="#fff"/>
 <path d="m64 224h64v8h-64z"/>
 <path d="m64 232h64v8h-64z" fill="#fff"/>
 <path d="m64 240h64v8h-64z"/>
 <path d="m64 248h64v8h-64z" fill="#fff"/>
 <path d="m128 128h64v8h-64z"/>
 <path d="m128 136h64v8h-64z" fill="#fff"/>
 <path transform="matrix(0,-1,-1,0,0,0)" d="m-192-200h64v8h-64z"/>
 <path transform="matrix(0,-1,-1,0,0,0)" d="m-192-208h64v8h-64z" fill="#fff"/>
 <path d="m128 144h64v8h-64z"/>
 <path d="m128 152h64v8h-64z" fill="#fff"/>
 <path d="m128 160h64v8h-64z"/>
 <path d="m128 168h64v8h-64z" fill="#fff"/>
 <path d="m128 176h64v8h-64z"/>
 <path d="m128 184h64v8h-64z" fill="#fff"/>
 <path transform="matrix(0,-1,-1,0,0,0)" d="m-192-216h64v8h-64z"/>
 <path transform="matrix(0,-1,-1,0,0,0)" d="m-192-224h64v8h-64z" fill="#fff"/>
 <path transform="matrix(0,-1,-1,0,0,0)" d="m-192-232h64v8h-64z"/>
 <path transform="matrix(0,-1,-1,0,0,0)" d="m-192-240h64v8h-64z" fill="#fff"/>
 <path transform="matrix(0,-1,-1,0,0,0)" d="m-192-248h64v8h-64z"/>
 <path transform="matrix(0,-1,-1,0,0,0)" d="m-192-256h64v8h-64z" fill="#fff"/>
 <path transform="matrix(0,-1,-1,0,0,0)" d="m-256-136h64v8h-64z"/>
 <path transform="matrix(0,-1,-1,0,0,0)" d="m-256-144h64v8h-64z" fill="#fff"/>
 <path transform="matrix(0,-1,-1,0,0,0)" d="m-256-152h64v8h-64z"/>
 <path transform="matrix(0,-1,-1,0,0,0)" d="m-256-160h64v8h-64z" fill="#fff"/>
 <path transform="matrix(0,-1,-1,0,0,0)" d="m-256-168h64v8h-64z"/>
 <path transform="matrix(0,-1,-1,0,0,0)" d="m-256-176h64v8h-64z" fill="#fff"/>
 <path transform="matrix(0,-1,-1,0,0,0)" d="m-256-184h64v8h-64z"/>
 <path transform="matrix(0,-1,-1,0,0,0)" d="m-256-192h64v8h-64z" fill="#fff"/>
 <path d="m192 192h64v8h-64z"/>
 <path d="m192 200h64v8h-64z" fill="#fff"/>
 <path d="m192 208h64v8h-64z"/>
 <path d="m192 216h64v8h-64z" fill="#fff"/>
 <path d="m192 224h64v8h-64z"/>
 <path d="m192 232h64v8h-64z" fill="#fff"/>
 <path d="m192 240h64v8h-64z"/>
 <path d="m192 248h64v8h-64z" fill="#fff"/>
 <path d="m256 0h64v8h-64z"/>
 <path d="m256 8h64v8h-64z" fill="#fff"/>
 <path transform="matrix(0,-1,-1,0,0,0)" d="m-64-328h64v8h-64z"/>
 <path transform="matrix(0,-1,-1,0,0,0)" d="m-64-336h64v8h-64z" fill="#fff"/>
 <path d="m256 16h64v8h-64z"/>
 <path d="m256 24h64v8h-64z" fill="#fff"/>
 <path d="m256 32h64v8h-64z"/>
 <path d="m256 40h64v8h-64z" fill="#fff"/>
 <path d="m256 48h64v8h-64z"/>
 <path d="m256 56h64v8h-64z" fill="#fff"/>
 <path transform="matrix(0,-1,-1,0,0,0)" d="m-64-344h64v8h-64z"/>
 <path transform="matrix(0,-1,-1,0,0,0)" d="m-64-352h64v8h-64z" fill="#fff"/>
 <path transform="matrix(0,-1,-1,0,0,0)" d="m-64-360h64v8h-64z"/>
 <path transform="matrix(0,-1,-1,0,0,0)" d="m-64-368h64v8h-64z" fill="#fff"/>
 <path transform="matrix(0,-1,-1,0,0,0)" d="m-64-376h64v8h-64z"/>
 <path transform="matrix(0,-1,-1,0,0,0)" d="m-64-384h64v8h-64z" fill="#fff"/>
 <path transform="matrix(0,-1,-1,0,0,0)" d="m-128-264h64v8h-64z"/>
 <path transform="matrix(0,-1,-1,0,0,0)" d="m-128-272h64v8h-64z" fill="#fff"/>
 <path transform="matrix(0,-1,-1,0,0,0)" d="m-128-280h64v8h-64z"/>
 <path transform="matrix(0,-1,-1,0,0,0)" d="m-128-288h64v8h-64z" fill="#fff"/>
 <path transform="matrix(0,-1,-1,0,0,0)" d="m-128-296h64v8h-64z"/>
 <path transform="matrix(0,-1,-1,0,0,0)" d="m-128-304h64v8h-64z" fill="#fff"/>
 <path transform="matrix(0,-1,-1,0,0,0)" d="m-128-312h64v8h-64z"/>
 <path transform="matrix(0,-1,-1,0,0,0)" d="m-128-320h64v8h-64z" fill="#fff"/>
 <path d="m320 64h64v8h-64z"/>
 <path d="m320 72h64v8h-64z" fill="#fff"/>
 <path d="m320 80h64v8h-64z"/>
 <path d="m320 88h64v8h-64z" fill="#fff"/>
 <path d="m320 96h64v8h-64z"/>
 <path d="m320 104h64v8h-64z" fill="#fff"/>
 <path d="m320 112h64v8h-64z"/>
 <path d="m320 120h64v8h-64z" fill="#fff"/>
 <path d="m384 0h64v8h-64z"/>
 <path d="m384 8h64v8h-64z" fill="#fff"/>
 <path transform="matrix(0,-1,-1,0,0,0)" d="m-64-456h64v8h-64z"/>
 <path transform="matrix(0,-1,-1,0,0,0)" d="m-64-464h64v8h-64z" fill="#fff"/>
 <path d="m384 16h64v8h-64z"/>
 <path d="m384 24h64v8h-64z" fill="#fff"/>
 <path d="m384 32h64v8h-64z"/>
 <path d="m384 40h64v8h-64z" fill="#fff"/>
 <path d="m384 48h64v8h-64z"/>
 <path d="m384 56h64v8h-64z" fill="#fff"/>
 <path transform="matrix(0,-1,-1,0,0,0)" d="m-64-472h64v8h-64z"/>
 <path transform="matrix(0,-1,-1,0,0,0)" d="m-64-480h64v8h-64z" fill="#fff"/>
 <path transform="matrix(0,-1,-1,0,0,0)" d="m-64-488h64v8h-64z"/>
 <path transform="matrix(0,-1,-1,0,0,0)" d="m-64-496h64v8h-64z" fill="#fff"/>
 <path transform="matrix(0,-1,-1,0,0,0)" d="m-64-504h64v8h-64z"/>
 <path transform="matrix(0,-1,-1,0,0,0)" d="m-64-512h64v8h-64z" fill="#fff"/>
 <path transform="matrix(0,-1,-1,0,0,0)" d="m-128-392h64v8h-64z"/>
 <path transform="matrix(0,-1,-1,0,0,0)" d="m-128-400h64v8h-64z" fill="#fff"/>
 <path transform="matrix(0,-1,-1,0,0,0)" d="m-128-408h64v8h-64z"/>
 <path transform="matrix(0,-1,-1,0,0,0)" d="m-128-416h64v8h-64z" fill="#fff"/>
 <path transform="matrix(0,-1,-1,0,0,0)" d="m-128-424h64v8h-64z"/>
 <path transform="matrix(0,-1,-1,0,0,0)" d="m-128-432h64v8h-64z" fill="#fff"/>
 <path transform="matrix(0,-1,-1,0,0,0)" d="m-128-440h64v8h-64z"/>
 <path transform="matrix(0,-1,-1,0,0,0)" d="m-128-448h64v8h-64z" fill="#fff"/>
 <path d="m448 64h64v8h-64z"/>
 <path d="m448 72h64v8h-64z" fill="#fff"/>
 <path d="m448 80h64v8h-64z"/>
 <path d="m448 88h64v8h-64z" fill="#fff"/>
 <path d="m448 96h64v8h-64z"/>
 <path d="m448 104h64v8h-64z" fill="#fff"/>
 <path d="m448 112h64v8h-64z"/>
 <path d="m448 120h64v8h-64z" fill="#fff"/>
 <path d="m256 128h64v8h-64z"/>
 <path d="m256 136h64v8h-64z" fill="#fff"/>
 <path transform="matrix(0,-1,-1,0,0,0)" d="m-192-328h64v8h-64z"/>
 <path transform="matrix(0,-1,-1,0,0,0)" d="m-192-336h64v8h-64z" fill="#fff"/>
 <path d="m256 144h64v8h-64z"/>
 <path d="m256 152h64v8h-64z" fill="#fff"/>
 <path d="m256 160h64v8h-64z"/>
 <path d="m256 168h64v8h-64z" fill="#fff"/>
 <path d="m256 176h64v8h-64z"/>
 <path d="m256 184h64v8h-64z" fill="#fff"/>
 <path transform="matrix(0,-1,-1,0,0,0)" d="m-192-344h64v8h-64z"/>
 <path transform="matrix(0,-1,-1,0,0,0)" d="m-192-352h64v8h-64z" fill="#fff"/>
 <path transform="matrix(0,-1,-1,0,0,0)" d="m-192-360h64v8h-64z"/>
 <path transform="matrix(0,-1,-1,0,0,0)" d="m-192-368h64v8h-64z" fill="#fff"/>
 <path transform="matrix(0,-1,-1,0,0,0)" d="m-192-376h64v8h-64z"/>
 <path transform="matrix(0,-1,-1,0,0,0)" d="m-192-384h64v8h-64z" fill="#fff"/>
 <path transform="matrix(0,-1,-1,0,0,0)" d="m-256-264h64v8h-64z"/>
 <path transform="matrix(0,-1,-1,0,0,0)" d="m-256-272h64v8h-64z" fill="#fff"/>
 <path transform="matrix(0,-1,-1,0,0,0)" d="m-256-280h64v8h-64z"/>
 <path transform="matrix(0,-1,-1,0,0,0)" d="m-256-288h64v8h-64z" fill="#fff"/>
 <path transform="matrix(0,-1,-1,0,0,0)" d="m-256-296h64v8h-64z"/>
 <path transform="matrix(0,-1,-1,0,0,0)" d="m-256-304h64v8h-64z" fill="#fff"/>
 <path transform="matrix(0,-1,-1,0,0,0)" d="m-256-312h64v8h-64z"/>
 <path transform="matrix(0,-1,-1,0,0,0)" d="m-256-320h64v8h-64z" fill="#fff"/>
 <path d="m320 192h64v8h-64z"/>
 <path d="m320 200h64v8h-64z" fill="#fff"/>
 <path d="m320 208h64v8h-64z"/>
 <path d="m320 216h64v8h-64z" fill="#fff"/>
 <path d="m320 224h64v8h-64z"/>
 <path d="m320 232h64v8h-64z" fill="#fff"/>
 <path d="m320 240h64v8h-64z"/>
 <path d="m320 248h64v8h-64z" fill="#fff"/>
 <path d="m384 128h64v8h-64z"/>
 <path d="m384 136h64v8h-64z" fill="#fff"/>
 <path transform="matrix(0,-1,-1,0,0,0)" d="m-192-456h64v8h-64z"/>
 <path transform="matrix(0,-1,-1,0,0,0)" d="m-192-464h64v8h-64z" fill="#fff"/>
 <path d="m384 144h64v8h-64z"/>
 <path d="m384 152h64v8h-64z" fill="#fff"/>
 <path d="m384 160h64v8h-64z"/>
 <path d="m384 168h64v8h-64z" fill="#fff"/>
 <path d="m384 176h64v8h-64z"/>
 <path d="m384 184h64v8h-64z" fill="#fff"/>
 <path transform="matrix(0,-1,-1,0,0,0)" d="m-192-472h64v8h-64z"/>
 <path transform="matrix(0,-1,-1,0,0,0)" d="m-192-480h64v8h-64z" fill="#fff"/>
 <path transform="matrix(0,-1,-1,0,0,0)" d="m-192-488h64v8h-64z"/>
 <path transform="matrix(0,-1,-1,0,0,0)" d="m-192-496h64v8h-64z" fill="#fff"/>
 <path transform="matrix(0,-1,-1,0,0,0)" d="m-192-504h64v8h-64z"/>
 <path transform="matrix(0,-1,-1,0,0,0)" d="m-192-512h64v8h-64z" fill="#fff"/>
 <path transform="matrix(0,-1,-1,0,0,0)" d="m-256-392h64v8h-64z"/>
 <path transform="matrix(0,-1,-1,0,0,0)" d="m-256-400h64v8h-64z" fill="#fff"/>
 <path transform="matrix(0,-1,-1,0,0,0)" d="m-256-408h64v8h-64z"/>
 <path transform="matrix(0,-1,-1,0,0,0)" d="m-256-416h64v8h-64z" fill="#fff"/>
 <path transform="matrix(0,-1,-1,0,0,0)" d="m-256-424h64v8h-64z"/>
 <path transform="matrix(0,-1,-1,0,0,0)" d="m-256-432h64v8h-64z" fill="#fff"/>
 <path transform="matrix(0,-1,-1,0,0,0)" d="m-256-440h64v8h-64z"/>
 <path transform="matrix(0,-1,-1,0,0,0)" d="m-256-448h64v8h-64z" fill="#fff"/>
 <path d="m448 192h64v8h-64z"/>
 <path d="m448 200h64v8h-64z" fill="#fff"/>
 <path d="m448 208h64v8h-64z"/>
 <path d="m448 216h64v8h-64z" fill="#fff"/>
 <path d="m448 224h64v8h-64z"/>
 <path d="m448 232h64v8h-64z" fill="#fff"/>
 <path d="m448 240h64v8h-64z"/>
 <path d="m448 248h64v8h-64z" fill="#fff"/>
 <path d="m0 256h64v8h-64z"/>
 <path d="m0 264h64v8h-64z" fill="#fff"/>
 <path transform="matrix(0,-1,-1,0,0,0)" d="m-320-72h64v8h-64z"/>
 <path transform="matrix(0,-1,-1,0,0,0)" d="m-320-80h64v8h-64z" fill="#fff"/>
 <path d="m0 272h64v8h-64z"/>
 <path d="m0 280h64v8h-64z" fill="#fff"/>
 <path d="m0 288h64v8h-64z"/>
 <path d="m0 296h64v8h-64z" fill="#fff"/>
 <path d="m0 304h64v8h-64z"/>
 <path d="m0 312h64v8h-64z" fill="#fff"/>
 <path transform="matrix(0,-1,-1,0,0,0)" d="m-320-88h64v8h-64z"/>
 <path transform="matrix(0,-1,-1,0,0,0)" d="m-320-96h64v8h-64z" fill="#fff"/>
 <path transform="matrix(0,-1,-1,0,0,0)" d="m-320-104h64v8h-64z"/>
 <path transform="matrix(0,-1,-1,0,0,0)" d="m-320-112h64v8h-64z" fill="#fff"/>
 <path transform="matrix(0,-1,-1,0,0,0)" d="m-320-120h64v8h-64z"/>
 <path transform="matrix(0,-1,-1,0,0,0)" d="m-320-128h64v8h-64z" fill="#fff"/>
 <path transform="matrix(0,-1,-1,0,0,0)" d="m-384-8h64v8h-64z"/>
 <path transform="matrix(0,-1,-1,0,0,0)" d="m-384-16h64v8h-64z" fill="#fff"/>
 <path transform="matrix(0,-1,-1,0,0,0)" d="m-384-24h64v8h-64z"/>
 <path transform="matrix(0,-1,-1,0,0,0)" d="m-384-32h64v8h-64z" fill="#fff"/>
 <path transform="matrix(0,-1,-1,0,0,0)" d="m-384-40h64v8h-64z"/>
 <path transform="matrix(0,-1,-1,0,0,0)" d="m-384-48h64v8h-64z" fill="#fff"/>
 <path transform="matrix(0,-1,-1,0,0,0)" d="m-384-56h64v8h-64z"/>
 <path transform="matrix(0,-1,-1,0,0,0)" d="m-384-64h64v8h-64z" fill="#fff"/>
 <path d="m64 320h64v8h-64z"/>
 <path d="m64 328h64v8h-64z" fill="#fff"/>
 <path d="m64 336h64v8h-64z"/>
 <path d="m64 344h64v8h-64z" fill="#fff"/>
 <path d="m64 352h64v8h-64z"/>
 <path d="m64 360h64v8h-64z" fill="#fff"/>
 <path d="m64 368h64v8h-64z"/>
 <path d="m64 376h64v8h-64z" fill="#fff"/>
 <path d="m128 256h64v8h-64z"/>
 <path d="m128 264h64v8h-64z" fill="#fff"/>
 <path transform="matrix(0,-1,-1,0,0,0)" d="m-320-200h64v8h-64z"/>
 <path transform="matrix(0,-1,-1,0,0,0)" d="m-320-208h64v8h-64z" fill="#fff"/>
 <path d="m128 272h64v8h-64z"/>
 <path d="m128 280h64v8h-64z" fill="#fff"/>
 <path d="m128 288h64v8h-64z"/>
 <path d="m128 296h64v8h-64z" fill="#fff"/>
 <path d="m128 304h64v8h-64z"/>
 <path d="m128 312h64v8h-64z" fill="#fff"/>
 <path transform="matrix(0,-1,-1,0,0,0)" d="m-320-216h64v8h-64z"/>
 <path transform="matrix(0,-1,-1,0,0,0)" d="m-320-224h64v8h-64z" fill="#fff"/>
 <path transform="matrix(0,-1,-1,0,0,0)" d="m-320-232h64v8h-64z"/>
 <path transform="matrix(0,-1,-1,0,0,0)" d="m-320-240h64v8h-64z" fill="#fff"/>
 <path transform="matrix(0,-1,-1,0,0,0)" d="m-320-248h64v8h-64z"/>
 <path transform="matrix(0,-1,-1,0,0,0)" d="m-320-256h64v8h-64z" fill="#fff"/>
 <path transform="matrix(0,-1,-1,0,0,0)" d="m-384-136h64v8h-64z"/>
 <path transform="matrix(0,-1,-1,0,0,0)" d="m-384-144h64v8h-64z" fill="#fff"/>
 <path transform="matrix(0,-1,-1,0,0,0)" d="m-384-152h64v8h-64z"/>
 <path transform="matrix(0,-1,-1,0,0,0)" d="m-384-160h64v8h-64z" fill="#fff"/>
 <path transform="matrix(0,-1,-1,0,0,0)" d="m-384-168h64v8h-64z"/>
 <path transform="matrix(0,-1,-1,0,0,0)" d="m-384-176h64v8h-64z" fill="#fff"/>
 <path transform="matrix(0,-1,-1,0,0,0)" d="m-384-184h64v8h-64z"/>
 <path transform="matrix(0,-1,-1,0,0,0)" d="m-384-192h64v8h-64z" fill="#fff"/>
 <path d="m192 320h64v8h-64z"/>
 <path d="m192 328h64v8h-64z" fill="#fff"/>
 <path d="m192 336h64v8h-64z"/>
 <path d="m192 344h64v8h-64z" fill="#fff"/>
 <path d="m192 352h64v8h-64z"/>
 <path d="m192 360h64v8h-64z" fill="#fff"/>
 <path d="m192 368h64v8h-64z"/>
 <path d="m192 376h64v8h-64z" fill="#fff"/>
 <path d="m0 384h64v8h-64z"/>
 <path d="m0 392h64v8h-64z" fill="#fff"/>
 <path transform="matrix(0,-1,-1,0,0,0)" d="m-448-72h64v8h-64z"/>
 <path transform="matrix(0,-1,-1,0,0,0)" d="m-448-80h64v8h-64z" fill="#fff"/>
 <path d="m0 400h64v8h-64z"/>
 <path d="m0 408h64v8h-64z" fill="#fff"/>
 <path d="m0 416h64v8h-64z"/>
 <path d="m0 424h64v8h-64z" fill="#fff"/>
 <path d="m0 432h64v8h-64z"/>
 <path d="m0 440h64v8h-64z" fill="#fff"/>
 <path transform="matrix(0,-1,-1,0,0,0)" d="m-448-88h64v8h-64z"/>
 <path transform="matrix(0,-1,-1,0,0,0)" d="m-448-96h64v8h-64z" fill="#fff"/>
 <path transform="matrix(0,-1,-1,0,0,0)" d="m-448-104h64v8h-64z"/>
 <path transform="matrix(0,-1,-1,0,0,0)" d="m-448-112h64v8h-64z" fill="#fff"/>
 <path transform="matrix(0,-1,-1,0,0,0)" d="m-448-120h64v8h-64z"/>
 <path transform="matrix(0,-1,-1,0,0,0)" d="m-448-128h64v8h-64z" fill="#fff"/>
 <path transform="matrix(0,-1,-1,0,0,0)" d="m-512-8h64v8h-64z"/>
 <path transform="matrix(0,-1,-1,0,0,0)" d="m-512-16h64v8h-64z" fill="#fff"/>
 <path transform="matrix(0,-1,-1,0,0,0)" d="m-512-24h64v8h-64z"/>
 <path transform="matrix(0,-1,-1,0,0,0)" d="m-512-32h64v8h-64z" fill="#fff"/>
 <path transform="matrix(0,-1,-1,0,0,0)" d="m-512-40h64v8h-64z"/>
 <path transform="matrix(0,-1,-1,0,0,0)" d="m-512-48h64v8h-64z" fill="#fff"/>
 <path transform="matrix(0,-1,-1,0,0,0)" d="m-512-56h64v8h-64z"/>
 <path transform="matrix(0,-1,-1,0,0,0)" d="m-512-64h64v8h-64z" fill="#fff"/>
 <path d="m64 448h64v8h-64z"/>
 <path d="m64 456h64v8h-64z" fill="#fff"/>
 <path d="m64 464h64v8h-64z"/>
 <path d="m64 472h64v8h-64z" fill="#fff"/>
 <path d="m64 480h64v8h-64z"/>
 <path d="m64 488h64v8h-64z" fill="#fff"/>
 <path d="m64 496h64v8h-64z"/>
 <path d="m64 504h64v8h-64z" fill="#fff"/>
 <path d="m128 384h64v8h-64z"/>
 <path d="m128 392h64v8h-64z" fill="#fff"/>
 <path transform="matrix(0,-1,-1,0,0,0)" d="m-448-200h64v8h-64z"/>
 <path transform="matrix(0,-1,-1,0,0,0)" d="m-448-208h64v8h-64z" fill="#fff"/>
 <path d="m128 400h64v8h-64z"/>
 <path d="m128 408h64v8h-64z" fill="#fff"/>
 <path d="m128 416h64v8h-64z"/>
 <path d="m128 424h64v8h-64z" fill="#fff"/>
 <path d="m128 432h64v8h-64z"/>
 <path d="m128 440h64v8h-64z" fill="#fff"/>
 <path transform="matrix(0,-1,-1,0,0,0)" d="m-448-216h64v8h-64z"/>
 <path transform="matrix(0,-1,-1,0,0,0)" d="m-448-224h64v8h-64z" fill="#fff"/>
 <path transform="matrix(0,-1,-1,0,0,0)" d="m-448-232h64v8h-64z"/>
 <path transform="matrix(0,-1,-1,0,0,0)" d="m-448-240h64v8h-64z" fill="#fff"/>
 <path transform="matrix(0,-1,-1,0,0,0)" d="m-448-248h64v8h-64z"/>
 <path transform="matrix(0,-1,-1,0,0,0)" d="m-448-256h64v8h-64z" fill="#fff"/>
 <path transform="matrix(0,-1,-1,0,0,0)" d="m-512-136h64v8h-64z"/>
 <path transform="matrix(0,-1,-1,0,0,0)" d="m-512-144h64v8h-64z" fill="#fff"/>
 <path transform="matrix(0,-1,-1,0,0,0)" d="m-512-152h64v8h-64z"/>
 <path transform="matrix(0,-1,-1,0,0,0)" d="m-512-160h64v8h-64z" fill="#fff"/>
 <path transform="matrix(0,-1,-1,0,0,0)" d="m-512-168h64v8h-64z"/>
 <path transform="matrix(0,-1,-1,0,0,0)" d="m-512-176h64v8h-64z" fill="#fff"/>
 <path transform="matrix(0,-1,-1,0,0,0)" d="m-512-184h64v8h-64z"/>
 <path transform="matrix(0,-1,-1,0,0,0)" d="m-512-192h64v8h-64z" fill="#fff"/>
 <path d="m192 448h64v8h-64z"/>
 <path d="m192 456h64v8h-64z" fill="#fff"/>
 <path d="m192 464h64v8h-64z"/>
 <path d="m192 472h64v8h-64z" fill="#fff"/>
 <path d="m192 480h64v8h-64z"/>
 <path d="m192 488h64v8h-64z" fill="#fff"/>
 <path d="m192 496h64v8h-64z"/>
 <path d="m192 504h64v8h-64z" fill="#fff"/>
 <path d="m256 256h64v8h-64z"/>
 <path d="m256 264h64v8h-64z" fill="#fff"/>
 <path transform="matrix(0,-1,-1,0,0,0)" d="m-320-328h64v8h-64z"/>
 <path transform="matrix(0,-1,-1,0,0,0)" d="m-320-336h64v8h-64z" fill="#fff"/>
 <path d="m256 272h64v8h-64z"/>
 <path d="m256 280h64v8h-64z" fill="#fff"/>
 <path d="m256 288h64v8h-64z"/>
 <path d="m256 296h64v8h-64z" fill="#fff"/>
 <path d="m256 304h64v8h-64z"/>
 <path d="m256 312h64v8h-64z" fill="#fff"/>
 <path transform="matrix(0,-1,-1,0,0,0)" d="m-320-344h64v8h-64z"/>
 <path transform="matrix(0,-1,-1,0,0,0)" d="m-320-352h64v8h-64z" fill="#fff"/>
 <path transform="matrix(0,-1,-1,0,0,0)" d="m-320-360h64v8h-64z"/>
 <path transform="matrix(0,-1,-1,0,0,0)" d="m-320-368h64v8h-64z" fill="#fff"/>
 <path transform="matrix(0,-1,-1,0,0,0)" d="m-320-376h64v8h-64z"/>
 <path transform="matrix(0,-1,-1,0,0,0)" d="m-320-384h64v8h-64z" fill="#fff"/>
 <path transform="matrix(0,-1,-1,0,0,0)" d="m-384-264h64v8h-64z"/>
 <path transform="matrix(0,-1,-1,0,0,0)" d="m-384-272h64v8h-64z" fill="#fff"/>
 <path transform="matrix(0,-1,-1,0,0,0)" d="m-384-280h64v8h-64z"/>
 <path transform="matrix(0,-1,-1,0,0,0)" d="m-384-288h64v8h-64z" fill="#fff"/>
 <path transform="matrix(0,-1,-1,0,0,0)" d="m-384-296h64v8h-64z"/>
 <path transform="matrix(0,-1,-1,0,0,0)" d="m-384-304h64v8h-64z" fill="#fff"/>
 <path transform="matrix(0,-1,-1,0,0,0)" d="m-384-312h64v8h-64z"/>
 <path transform="matrix(0,-1,-1,0,0,0)" d="m-384-320h64v8h-64z" fill="#fff"/>
 <path d="m320 320h64v8h-64z"/>
 <path d="m320 328h64v8h-64z" fill="#fff"/>
 <path d="m320 336h64v8h-64z"/>
 <path d="m320 344h64v8h-64z" fill="#fff"/>
 <path d="m320 352h64v8h-64z"/>
 <path d="m320 360h64v8h-64z" fill="#fff"/>
 <path d="m320 368h64v8h-64z"/>
 <path d="m320 376h64v8h-64z" fill="#fff"/>
 <path d="m384 256h64v8h-64z"/>
 <path d="m384 264h64v8h-64z" fill="#fff"/>
 <path transform="matrix(0,-1,-1,0,0,0)" d="m-320-456h64v8h-64z"/>
 <path transform="matrix(0,-1,-1,0,0,0)" d="m-320-464h64v8h-64z" fill="#fff"/>
 <path d="m384 272h64v8h-64z"/>
 <path d="m384 280h64v8h-64z" fill="#fff"/>
 <path d="m384 288h64v8h-64z"/>
 <path d="m384 296h64v8h-64z" fill="#fff"/>
 <path d="m384 304h64v8h-64z"/>
 <path d="m384 312h64v8h-64z" fill="#fff"/>
 <path transform="matrix(0,-1,-1,0,0,0)" d="m-320-472h64v8h-64z"/>
 <path transform="matrix(0,-1,-1,0,0,0)" d="m-320-480h64v8h-64z" fill="#fff"/>
 <path transform="matrix(0,-1,-1,0,0,0)" d="m-320-488h64v8h-64z"/>
 <path transform="matrix(0,-1,-1,0,0,0)" d="m-320-496h64v8h-64z" fill="#fff"/>
 <path transform="matrix(0,-1,-1,0,0,0)" d="m-320-504h64v8h-64z"/>
 <path transform="matrix(0,-1,-1,0,0,0)" d="m-320-512h64v8h-64z" fill="#fff"/>
 <path transform="matrix(0,-1,-1,0,0,0)" d="m-384-392h64v8h-64z"/>
 <path transform="matrix(0,-1,-1,0,0,0)" d="m-384-400h64v8h-64z" fill="#fff"/>
 <path transform="matrix(0,-1,-1,0,0,0)" d="m-384-408h64v8h-64z"/>
 <path transform="matrix(0,-1,-1,0,0,0)" d="m-384-416h64v8h-64z" fill="#fff"/>
 <path transform="matrix(0,-1,-1,0,0,0)" d="m-384-424h64v8h-64z"/>
 <path transform="matrix(0,-1,-1,0,0,0)" d="m-384-432h64v8h-64z" fill="#fff"/>
 <path transform="matrix(0,-1,-1,0,0,0)" d="m-384-440h64v8h-64z"/>
 <path transform="matrix(0,-1,-1,0,0,0)" d="m-384-448h64v8h-64z" fill="#fff"/>
 <path d="m448 320h64v8h-64z"/>
 <path d="m448 328h64v8h-64z" fill="#fff"/>
 <path d="m448 336h64v8h-64z"/>
 <path d="m448 344h64v8h-64z" fill="#fff"/>
 <path d="m448 352h64v8h-64z"/>
 <path d="m448 360h64v8h-64z" fill="#fff"/>
 <path d="m448 368h64v8h-64z"/>
 <path d="m448 376h64v8h-64z" fill="#fff"/>
 <path d="m256 384h64v8h-64z"/>
 <path d="m256 392h64v8h-64z" fill="#fff"/>
 <path transform="matrix(0,-1,-1,0,0,0)" d="m-448-328h64v8h-64z"/>
 <path transform="matrix(0,-1,-1,0,0,0)" d="m-448-336h64v8h-64z" fill="#fff"/>
 <path d="m256 400h64v8h-64z"/>
 <path d="m256 408h64v8h-64z" fill="#fff"/>
 <path d="m256 416h64v8h-64z"/>
 <path d="m256 424h64v8h-64z" fill="#fff"/>
 <path d="m256 432h64v8h-64z"/>
 <path d="m256 440h64v8h-64z" fill="#fff"/>
 <path transform="matrix(0,-1,-1,0,0,0)" d="m-448-344h64v8h-64z"/>
 <path transform="matrix(0,-1,-1,0,0,0)" d="m-448-352h64v8h-64z" fill="#fff"/>
 <path transform="matrix(0,-1,-1,0,0,0)" d="m-448-360h64v8h-64z"/>
 <path transform="matrix(0,-1,-1,0,0,0)" d="m-448-368h64v8h-64z" fill="#fff"/>
 <path transform="matrix(0,-1,-1,0,0,0)" d="m-448-376h64v8h-64z"/>
 <path transform="matrix(0,-1,-1,0,0,0)" d="m-448-384h64v8h-64z" fill="#fff"/>
 <path transform="matrix(0,-1,-1,0,0,0)" d="m-512-264h64v8h-64z"/>
 <path transform="matrix(0,-1,-1,0,0,0)" d="m-512-272h64v8h-64z" fill="#fff"/>
 <path transform="matrix(0,-1,-1,0,0,0)" d="m-512-280h64v8h-64z"/>
 <path transform="matrix(0,-1,-1,0,0,0)" d="m-512-288h64v8h-64z" fill="#fff"/>
 <path transform="matrix(0,-1,-1,0,0,0)" d="m-512-296h64v8h-64z"/>
 <path transform="matrix(0,-1,-1,0,0,0)" d="m-512-304h64v8h-64z" fill="#fff"/>
 <path transform="matrix(0,-1,-1,0,0,0)" d="m-512-312h64v8h-64z"/>
 <path transform="matrix(0,-1,-1,0,0,0)" d="m-512-320h64v8h-64z" fill="#fff"/>
 <path d="m320 448h64v8h-64z"/>
 <path d="m320 456h64v8h-64z" fill="#fff"/>
 <path d="m320 464h64v8h-64z"/>
 <path d="m320 472h64v8h-64z" fill="#fff"/>
 <path d="m320 480h64v8h-64z"/>
 <path d="m320 488h64v8h-64z" fill="#fff"/>
 <path d="m320 496h64v8h-64z"/>
 <path d="m320 504h64v8h-64z" fill="#fff"/>
 <path d="m384 384h64v8h-64z"/>
 <path d="m384 392h64v8h-64z" fill="#fff"/>
 <path transform="matrix(0,-1,-1,0,0,0)" d="m-448-456h64v8h-64z"/>
 <path transform="matrix(0,-1,-1,0,0,0)" d="m-448-464h64v8h-64z" fill="#fff"/>
 <path d="m384 400h64v8h-64z"/>
 <path d="m384 408h64v8h-64z" fill="#fff"/>
 <path d="m384 416h64v8h-64z"/>
 <path d="m384 424h64v8h-64z" fill="#fff"/>
 <path d="m384 432h64v8h-64z"/>
 <path d="m384 440h64v8h-64z" fill="#fff"/>
 <path transform="matrix(0,-1,-1,0,0,0)" d="m-448-472h64v8h-64z"/>
 <path transform="matrix(0,-1,-1,0,0,0)" d="m-448-480h64v8h-64z" fill="#fff"/>
 <path transform="matrix(0,-1,-1,0,0,0)" d="m-448-488h64v8h-64z"/>
 <path transform="matrix(0,-1,-1,0,0,0)" d="m-448-496h64v8h-64z" fill="#fff"/>
 <path transform="matrix(0,-1,-1,0,0,0)" d="m-448-504h64v8h-64z"/>
 <path transform="matrix(0,-1,-1,0,0,0)" d="m-448-512h64v8h-64z" fill="#fff"/>
 <path transform="matrix(0,-1,-1,0,0,0)" d="m-512-392h64v8h-64z"/>
 <path transform="matrix(0,-1,-1,0,0,0)" d="m-512-400h64v8h-64z" fill="#fff"/>
 <path transform="matrix(0,-1,-1,0,0,0)" d="m-512-408h64v8h-64z"/>
 <path transform="matrix(0,-1,-1,0,0,0)" d="m-512-416h64v8h-64z" fill="#fff"/>
 <path transform="matrix(0,-1,-1,0,0,0)" d="m-512-424h64v8h-64z"/>
 <path transform="matrix(0,-1,-1,0,0,0)" d="m-512-432h64v8h-64z" fill="#fff"/>
 <path transform="matrix(0,-1,-1,0,0,0)" d="m-512-440h64v8h-64z"/>
 <path transform="matrix(0,-1,-1,0,0,0)" d="m-512-448h64v8h-64z" fill="#fff"/>
 <path d="m448 448h64v8h-64z"/>
 <path d="m448 456h64v8h-64z" fill="#fff"/>
 <path d="m448 464h64v8h-64z"/>
 <path d="m448 472h64v8h-64z" fill="#fff"/>
 <path d="m448 480h64v8h-64z"/>
 <path d="m448 488h64v8h-64z" fill="#fff"/>
 <path d="m448 496h64v8h-64z"/>
 <path d="m448 504h64v8h-64z" fill="#fff"/>
</svg>
